<svg width="48" height="48" viewBox="0 0 48 48" fill="none" xmlns="http://www.w3.org/2000/svg">
<path d="M42.3933 23.7521C43.1293 23.7194 44.361 23.6878 44.6545 23.7857C44.6545 24.4757 44.6457 25.5619 44.4091 25.6803C43.7485 26.0132 41.2552 25.6802 40.5644 25.6802C39.8737 25.6802 38.0972 25.7049 39.4786 25.6058C40.1951 25.5544 27.8973 25.7048 25.7264 25.6058C23.5555 25.5067 20.791 25.6058 19.9029 25.6058C19.0148 25.6058 16.703 25.6 16.5473 25.6C16.3917 25.6 15.525 25.3355 15.1303 25.2365C14.8146 25.1572 16.2568 25.2386 16.4228 25.2057C16.3163 25.1776 15.3888 25.0027 14.925 24.9527C14.7191 24.9463 14.6102 24.9393 14.7356 24.9393C14.7813 24.9393 14.8465 24.9442 14.925 24.9527C15.3673 24.9664 16.2573 24.9772 16.236 24.91C16.2049 24.8114 14.377 24.9123 14.377 24.8133C14.377 24.7142 15.7919 24.8114 15.7919 24.7128C15.7919 24.6142 13.9823 24.7142 13.9823 24.6152C13.9823 24.5161 15.4494 24.7128 15.356 24.6142C15.2845 24.5387 14.4593 24.4632 13.9437 24.432C13.6751 24.4246 13.5074 24.417 13.5876 24.417C13.657 24.417 13.7858 24.4224 13.9437 24.432C14.4675 24.4465 15.375 24.4605 15.5739 24.417C15.2938 24.417 13.41 24.2189 13.0942 24.2189C12.6995 24.2189 12.6995 24.1199 13.8837 24.1199C15.0678 24.1199 18.7254 23.8281 22.0803 23.6099C25.4353 23.3916 40.2661 23.5875 41.0556 23.5875C41.4987 23.5875 42.4709 23.6955 42.3933 23.7521Z" fill="currentColor"/>
<path d="M21.4249 31.4952C21.5684 31.4952 21.7119 30.9037 21.7119 30.3122C21.7119 30.0166 13.3899 24.6929 13.3899 24.545C13.3899 24.3971 21.5684 18.9258 21.7119 18.9258C21.8553 18.9258 21.7119 18.0386 21.7119 17.8907C21.7119 17.7429 20.9945 17.1514 20.7075 17.0035C20.4205 16.8556 14.6813 21.4397 15.3987 21.1439C16.1161 20.8482 11.4005 23.533 11.2377 23.6578C10.8565 23.9499 11.5739 24.3359 11.5739 24.545C11.5739 24.6929 11.2377 24.9886 11.0942 24.9886C10.9508 24.9886 10.9508 25.2844 11.2377 25.4322C11.5247 25.5801 20.277 31.7909 20.564 31.9388C20.851 32.0866 20.9945 31.9388 21.1379 31.7909L21.1379 31.7909C21.2814 31.643 21.2814 31.3472 21.4249 31.1993C21.5684 31.0514 21.2814 31.4952 21.4249 31.4952Z" fill="currentColor"/>
</svg>
