<svg width="1023" height="214" viewBox="0 0 1023 214" fill="none" xmlns="http://www.w3.org/2000/svg">
<path d="M975.76 159.591C975.001 159.591 974.242 162.627 974.242 165.663C974.242 167.18 1003.13 184.018 1003.13 184.777C1003.13 185.536 974.386 203.187 973.627 203.187C972.868 203.187 973.627 207.741 973.627 208.5C973.627 209.259 977.422 212.295 978.94 213.054C980.458 213.813 997.422 201.482 993.627 203C989.832 204.518 1016.11 190.089 1016.87 189.33C1017.63 188.571 1016.11 185.536 1015.35 184.777C1014.59 184.018 1016.87 182.5 1017.63 182.5C1018.39 182.5 1018.39 180.982 1016.87 180.223C1015.35 179.464 981.832 158.073 980.314 157.314C978.796 156.555 978.037 157.314 977.278 158.073L977.278 158.073C976.519 158.832 976.519 160.351 975.76 161.11C975.001 161.869 976.519 159.591 975.76 159.591Z" fill="black"/>
<path d="M965.128 180.002C1001.68 180.002 1022.72 181.018 1022.72 181.52C1022.72 182.021 1015.72 181.52 1015.22 182.022C1014.72 182.524 1022.28 182.731 1022.22 183.026C1022.17 183.291 1015.82 183.035 1015.72 183.528C1015.62 184.021 1021.22 183.847 1021.22 184.03C1021.22 184.533 1016.4 183.846 1016.22 184.03C1015.72 184.533 1020.22 184.533 1021.22 185.035C1022.22 185.537 1016.72 184.9 1016.72 185.035C1016.72 185.449 1020.96 185.801 1020.72 186.039C1020.48 186.277 1014.72 185.537 1019.22 186.541C1023.72 187.546 996.115 188.552 995.129 188.5C985.622 187.998 957.132 189 949.127 189C941.122 189 877.133 191.008 879.134 190.004C880.748 189.194 872.63 189.502 868.627 189C864.625 188.497 806.625 190.924 757.127 189C615.627 183.5 368.133 176.504 364.631 176.504C361.128 176.504 341.127 176.504 359.127 175.499C364.622 175.193 183.127 179.5 148.627 179.5C114.127 179.5 67.1272 119.5 58.1272 105C49.1272 90.4996 26.2512 49.497 25.1272 46.4997C23.6272 42.4997 16.5633 28.4354 18.1272 30.2189C20.1272 32.4997 21.6271 36.4996 23.6272 35.9997C22.1271 34.9999 17.9333 27.612 17.1272 25.9997C16.6272 24.9997 21.1272 31.4997 21.6272 31.4997C22.1272 31.4997 15.2283 20.9997 16.4277 21.9997C17.6272 22.9997 24.6272 34.0019 24.6272 33.4997C24.6272 32.9975 14.1271 15.4998 15.1272 15.9997C15.7604 16.3162 18.764 21.0427 20.5237 23.9601C18.5061 19.9332 14.8313 11.7414 16.4277 12.9997C18.3308 14.4997 16.1271 14.5006 20.6272 18.9997C17.1271 14.5006 12.1387 -1.97273 13.1272 0.499695C14.3267 3.49969 17.5743 10.9214 20.6272 15.4997C24.6273 21.4986 32.5153 39.3255 35.8212 45.1626C39.1272 50.9997 65.1272 98.4997 83.1272 118.5C101.127 138.5 105.5 153.893 151 169C153.889 169.959 163.127 168.5 158.127 169.5C156.627 169.8 233.085 165.025 328.627 166C426.627 167 710.627 177.922 757.127 178.5C803.627 179.077 859.625 178.5 862.627 178.5C865.629 178.5 880.139 177.998 872.634 179.002C871.932 179.096 925.127 180.002 965.128 180.002Z" fill="black"/>
<path d="M583.876 163.818L578.054 161C574.389 165.647 567.051 173.139 565.677 174.997C564.302 176.856 554.169 191.782 553.711 192.247C553.253 192.712 556.127 194.535 556.127 195C556.127 195.465 560.251 195.929 560.709 195.929C561.167 195.929 568.711 185.359 569.627 183.5C570.543 181.641 580.211 169.859 580.669 169.394C581.035 169.022 581.127 168.31 581.127 168L583.876 163.818Z" fill="black"/>
<path d="M609.627 163.5L603.677 161C600.012 165.647 586.502 181.141 585.127 183C583.753 184.859 580.169 191.782 579.711 192.247C579.253 192.712 582.127 194.535 582.127 195C582.127 195.465 586.169 194.5 586.627 194.5C587.085 194.5 593.211 184.859 594.127 183C595.043 181.141 605.711 168.359 606.169 167.894C606.536 167.522 606.627 166.81 606.627 166.5L609.627 163.5Z" fill="black"/>
<path d="M48.1785 31.254L42.9043 28.2152C37.1673 37.8668 29.6729 47.935 27.1555 51.8198C24.6381 55.7046 24.5204 54.5888 24.0516 54.414C23.5828 54.2391 17.5526 63.2455 16.9083 63.5411C16.2639 63.8368 18.0234 67.7087 18.9609 68.0583C19.8985 68.408 21.3627 67.3461 22.4758 67.2253C23.5889 67.1044 36.4113 49.9119 39.5731 45.7315C42.7348 41.551 46.481 34.3727 46.0122 34.1978C45.6372 34.058 47.3002 32.177 48.1785 31.254Z" fill="black"/>
</svg>
