<svg width="1058" height="180" viewBox="0 0 1058 180" fill="none" xmlns="http://www.w3.org/2000/svg">
<path d="M948.5 151C985.056 151 1040.5 156 1042 157C1043.5 158 1043 162 1041.5 163C1040 164 1006.04 161.425 998 161C988.494 160.497 952.005 160 944 160C935.995 160 870.006 163.009 872.007 162.004C873.62 161.194 865.503 161.502 861.5 161C857.497 160.498 821.5 161.5 771 161C629.4 159.598 369.002 151.092 365.5 151.092C361.998 151.092 341.996 151.092 359.996 150.088C365.491 149.781 281 148 242 143C203 138 30 96.9995 17 78.9995C4 60.9995 2.48682 48.6634 2 45.4995C1 38.9995 -0.250122 27.7492 0.5 29.9995C1.5 32.9995 0.709473 37.4995 2 37.4995C1.5 36.4995 0.432251 22.4995 0.5 21.9995C0.650024 20.8916 2 34.9995 2.5 34.9995C3 34.9995 -0.199463 16.4995 1 17.4995C2.19946 18.4995 2.5 29.4995 3 29.9995C3.5 30.4995 1 10.9996 2 11.4995C3 11.9994 3 25.9995 3.5 26.4995C4 26.9995 3.58093 2.48488 4 4.99951C4.18896 6.13319 4.30652 9.409 4.37964 13.046C4.37219 6.10774 4.48792 -0.781265 5 0.499512C6.19946 3.49951 4.5 34.4995 12.5 47.9995C20.5 61.4995 19 72.4995 39.5 79.9995C60 87.4995 54.5 87.9995 102.5 99.9995C150.5 112 227.5 128.5 230 129C232.5 129.5 234 130 237.5 130.5C239.014 130.716 221 132 314.5 138.5C412.269 145.296 727 149.922 773.5 150.5C820 151.077 875.498 151 878.5 151C881.502 151 896.012 150.498 888.507 151.502C887.805 151.596 908.5 151 948.5 151Z" fill="black"/>
<path d="M795.215 140.818L789.392 138C785.727 142.647 778.39 150.139 777.015 151.997C775.641 153.856 765.508 168.782 765.049 169.247C764.591 169.712 767.466 171.535 767.466 172C767.466 172.465 771.589 172.929 772.047 172.929C772.505 172.929 780.049 162.359 780.966 160.5C781.882 158.641 791.549 146.859 792.007 146.394C792.374 146.022 792.466 145.31 792.466 145L795.215 140.818Z" fill="black"/>
<path d="M820.966 140.5L815.015 138C811.35 142.647 797.84 158.141 796.466 160C795.091 161.859 791.508 168.782 791.049 169.247C790.591 169.712 793.466 171.535 793.466 172C793.466 172.465 797.508 171.5 797.966 171.5C798.424 171.5 804.549 161.859 805.466 160C806.382 158.141 817.049 145.359 817.508 144.894C817.874 144.522 817.966 143.81 817.966 143.5L820.966 140.5Z" fill="black"/>
<path d="M40.9999 67.5001L36.4999 64.0006C27.94 71.2666 24.6423 74.1436 20.9999 77.0006C17.3575 79.8576 17.381 79.6327 16.9944 79.3151C16.6077 78.9975 7.20528 84.4299 6.49987 84.5003C5.79446 84.5708 7.22664 89.3647 7.99987 89.9998C8.77311 90.635 10.2522 90.6736 11.3442 90.9207C12.4363 91.1678 26.1522 80.4274 30.5 77.5C34.8478 74.5726 38.8866 70.3176 38.5 70C38.1907 69.746 39.8694 68.0879 40.9999 67.5001Z" fill="black"/>
<path d="M1020.47 136.591C1019.71 136.591 1018.95 139.627 1018.95 142.663C1018.95 144.18 1040.5 158.741 1040.5 159.5C1040.5 160.259 1015.76 168.446 1015 168.446C1014.24 168.446 1013.64 172.241 1013.64 173C1013.64 173.759 1015.98 178.241 1017.5 179C1019.02 179.759 1033.86 173.054 1037 172C1040.87 170.699 1056.52 166.259 1057.28 165.5C1058.04 164.741 1056 162 1056 161C1056 159.927 1056.52 158.723 1057.28 158.723C1058.04 158.723 1058.04 157.205 1056.52 156.446C1055 155.687 1026.54 135.073 1025.02 134.314C1023.51 133.555 1022.75 134.314 1021.99 135.073L1021.99 135.073C1021.23 135.832 1021.23 137.351 1020.47 138.11C1019.71 138.869 1021.23 136.591 1020.47 136.591Z" fill="black"/>
</svg>
