<svg width="1023" height="214" viewBox="0 0 1023 214" fill="none" xmlns="http://www.w3.org/2000/svg">
<path d="M986.192 127.42C985.433 127.42 984.674 130.456 984.674 133.492C984.674 135.009 1010.36 152.352 1010.36 153.111C1010.36 153.87 983.156 166.453 982.397 166.453C981.638 166.453 982.397 171.007 982.397 171.766C982.397 172.525 986.192 175.56 987.71 176.319C989.228 177.078 1003.53 169.048 999.732 170.566C995.936 172.084 1020.98 158.423 1021.74 157.664C1022.5 156.905 1020.98 153.87 1020.22 153.111C1019.47 152.352 1021.74 150.834 1022.5 150.834C1023.26 150.834 1023.26 149.316 1021.74 148.557C1020.22 147.798 992.264 125.902 990.746 125.143C989.228 124.385 988.469 125.143 987.71 125.902L987.71 125.902C986.951 126.661 986.951 128.18 986.192 128.939C985.433 129.698 986.951 127.42 986.192 127.42Z" fill="black"/>
<path d="M951.335 149.325C987.836 147.327 1008.93 150.341 1008.93 150.843C1008.93 151.345 1001.93 150.843 1001.43 151.345C1000.92 151.847 1008.49 152.054 1008.43 152.349C1008.38 152.614 1002.03 152.358 1001.93 152.851C1001.82 153.344 1007.43 153.17 1007.43 153.353C1007.43 153.856 1002.61 153.169 1002.43 153.353C1001.93 153.856 1006.43 153.856 1007.43 154.358C1008.43 154.86 1002.93 154.224 1002.93 154.358C1002.93 154.772 1007.17 155.124 1006.93 155.362C1006.69 155.6 1000.92 154.86 1005.43 155.864C1009.93 156.869 982.322 157.875 981.336 157.823C971.829 157.321 944.839 159.823 936.834 159.823C928.829 159.823 866.837 166.326 868.838 165.322C870.451 164.512 862.334 164.819 858.331 164.317C854.328 163.815 749.85 175.37 700.324 176.319C569.82 178.819 349.318 173.824 345.815 173.824C342.313 173.824 333.307 173.322 340.312 172.82C343.945 172.559 282.31 172.82 224.808 163.322C199.807 159.192 98.8036 106.833 56.3022 70.3398C52.8862 67.4066 28.8013 45.8439 26.3013 43.8447C24.3477 42.2825 11.8008 30.0725 13.8008 31.3478C15.1926 32.2352 17.801 35.8469 19.801 35.347C18.301 34.3472 10.3007 26.3487 9.30066 24.849C8.5683 23.7507 15.8012 29.5703 15.3009 29.0682C14.8005 28.566 7.3006 19.8499 8.30066 19.8499C9.30066 19.8499 12.3912 23.8514 12.3912 23.3493C12.3912 22.8471 3.80048 11.8515 4.80054 12.3514C5.80054 12.8513 9.30066 16.3506 7.88831 14.351C6.97528 13.0584 -1.05011 3.35739 0.800415 5.11087C2.38312 6.61058 1.80042 5.85263 6.3006 10.3518C2.80048 5.85263 -1.28027 -1.72536 0.383301 0.353699L0.630859 0.662933C2.41943 2.89671 2.87799 3.46945 5.80054 7.85225C9.80072 13.8511 24.6645 28.8558 29.8038 33.8468C34.2051 38.121 51.8046 54.3429 93.806 84.3371C164.926 135.126 211.812 147.33 214.81 148.325C217.699 149.284 229.81 152.533 219.81 150.324C218.81 150.104 258.311 159.823 329.314 163.322C426.282 168.101 651.325 167.321 690.326 166.321C729.327 165.322 833.329 155.864 836.331 155.864C839.333 155.864 853.842 155.362 846.337 156.366C845.636 156.46 915.361 151.293 951.335 149.325Z" fill="black"/>
<path d="M467.818 158.323L463.195 154.823C459.53 159.47 452.192 166.962 450.818 168.821C449.443 170.679 440.276 184.853 439.817 185.317C439.359 185.782 442.234 187.606 442.234 188.07C442.234 188.535 446.357 189 446.815 189C447.273 189 454.402 177.178 455.318 175.319C456.234 173.461 464.153 164.364 464.611 163.899C464.978 163.527 465.07 162.815 465.07 162.505L467.818 158.323Z" fill="black"/>
<path d="M481.318 162.322L475.318 159.822C471.653 164.469 469.192 172.461 467.818 174.319C466.443 176.178 460.776 183.353 460.318 183.818C459.86 184.282 462.734 186.106 462.734 186.571C462.734 187.035 465.36 187.317 465.818 187.317C466.277 187.317 471.902 180.178 472.819 178.319C473.735 176.46 477.36 170.785 477.818 170.32C478.185 169.948 478.276 169.236 478.276 168.926L481.318 162.322Z" fill="black"/>
<path d="M39.8545 18.1056L34.5802 15.0667C28.8433 24.7184 21.3489 34.7865 18.8315 38.6713C16.314 42.5562 16.1963 41.4404 15.7276 41.2655C15.2588 41.0907 9.22855 50.097 8.58423 50.3927C7.93991 50.6884 9.69934 54.5603 10.6369 54.9099C11.5745 55.2595 13.0386 54.1977 14.1517 54.0768C15.2648 53.956 28.0873 36.7635 31.249 32.583C34.4108 28.4025 38.157 21.2242 37.6882 21.0494C37.3132 20.9096 38.9761 19.0286 39.8545 18.1056Z" fill="black"/>
</svg>
