<svg width="48" height="48" viewBox="0 0 48 48" fill="none" xmlns="http://www.w3.org/2000/svg">
<path d="M5.11888 25.2277C4.38292 25.2603 3.15119 25.2919 2.85767 25.1941C2.85767 24.504 2.91682 23.0944 3.15341 22.976C3.81404 22.6431 6.25705 23.2996 6.94778 23.2996C7.63851 23.2996 9.41463 23.3986 8.03321 23.4977C7.31667 23.5491 19.6145 23.3986 21.7854 23.4977C23.9562 23.5968 26.7208 23.4977 27.6089 23.4977H29.6811C30.1745 23.4977 31.3585 23.7949 31.7532 23.8939L31.7533 23.8939C32.0691 23.9732 30.6021 23.8609 30.0758 23.8939C30.3978 23.9209 31.3634 24.1016 31.8796 24.1673C32.133 24.1789 32.2867 24.1911 32.148 24.1911C32.0898 24.1911 31.9962 24.1822 31.8796 24.1673C31.4118 24.146 30.6039 24.1269 30.6679 24.1911C30.7665 24.2902 33.1348 24.1911 33.1348 24.2902C33.1348 24.3892 30.1745 24.2902 30.1745 24.3892C30.1745 24.4883 33.5295 24.3893 33.5295 24.4883C33.5295 24.5874 31.2599 24.3892 31.5559 24.4883C31.7908 24.5669 32.9575 24.6455 33.5774 24.6746C33.845 24.6809 33.9928 24.6864 33.9242 24.6864C33.863 24.6864 33.7387 24.6822 33.5774 24.6746C32.9208 24.6593 31.5428 24.6395 30.8652 24.6864C31.7533 24.6864 34.1018 24.8845 34.4175 24.8845C34.8122 24.8845 34.8122 24.9836 33.6281 24.9836C32.444 24.9836 29.089 25.5266 25.7341 25.7448C22.3791 25.9631 7.24606 25.3922 6.45666 25.3922C6.01347 25.3922 5.04132 25.2842 5.11888 25.2277Z" fill="black"/>
<path d="M24.318 17.5048C24.171 17.5048 24.024 18.0963 24.024 18.6878C24.024 18.9834 32.5511 24.3071 32.5511 24.455C32.5511 24.6029 24.171 30.0742 24.024 30.0742C23.8769 30.0742 24.024 30.9614 24.024 31.1093C24.024 31.2571 24.7591 31.8486 25.0531 31.9965C25.3471 32.1444 31.228 27.5603 30.4929 27.8561C29.7578 28.1518 34.6094 25.4901 34.7565 25.3422C34.9035 25.1944 34.6094 24.6029 34.4624 24.455C34.3154 24.3071 34.7565 24.0114 34.9035 24.0114C35.0505 24.0114 35.0505 23.7156 34.7565 23.5678C34.4624 23.4199 25.4942 17.2091 25.2001 17.0612C24.9061 16.9134 24.7591 17.0612 24.6121 17.2091L24.612 17.2091C24.465 17.357 24.465 17.6528 24.318 17.8007C24.171 17.9486 24.465 17.5048 24.318 17.5048Z" fill="black"/>
</svg>
