<svg width="681" height="212" viewBox="0 0 681 212" fill="none" preserveAspectRatio="none" xmlns="http://www.w3.org/2000/svg">
<g class="bg">
<path d="M29.5 188L45 26H651.5L661 195.5L182.5 176L29.5 188Z" fill="currentColor"/>
</g>
<g class="border">
<path d="M88.055 31.1636C52.0326 30.6613 18.0111 27.6473 18.0112 27.1453C18.0113 26.6432 25.0156 27.1453 25.5159 26.643C26.0162 26.1407 18.4514 25.9333 18.5115 25.6385C18.5655 25.3739 24.9143 25.6294 25.0156 25.1362C25.1169 24.643 19.5122 24.8173 19.5122 24.634C19.5122 24.1317 24.3315 24.8185 24.5153 24.634C25.0156 24.1317 20.5128 24.1317 19.5122 23.6294C18.5115 23.1272 24.0151 23.7637 24.0151 23.6294C24.015 23.2154 19.7755 22.8629 20.0126 22.6249C20.2497 22.3869 26.0163 23.1272 21.5135 22.1227C17.0107 21.1182 43.5415 21.066 44.5279 21.1182C54.0338 21.6204 81.0507 21.6204 89.0557 21.6204C97.0607 21.6204 159.6 19.6114 157.598 20.6159C155.985 21.4258 164.102 21.1182 168.105 21.6204C172.107 22.1227 309.193 20.6161 358.724 20.1138C408.255 19.6116 494.309 21.6206 497.811 21.6206C501.313 21.6206 510.319 22.1227 503.314 22.6251C499.681 22.8857 571.857 22.1228 582.864 22.6251C593.871 23.1274 621.388 22.1228 625.891 22.1228C630.394 22.1228 653.408 21.6206 655.91 21.6206C658.411 21.6206 664.415 22.6251 666.416 23.1274C668.017 23.5292 663.081 23.9645 660.412 24.1319C662.414 24.2993 666.816 24.6341 668.417 24.6341C670.419 24.6341 662.914 25.1364 663.414 25.6387C663.915 26.1409 673.421 24.6342 673.421 25.1364C673.421 25.6387 660.913 26.141 660.913 26.6432C660.913 27.1455 675.422 25.6387 675.422 26.141C675.422 26.6432 666.416 26.6432 667.917 27.1455C669.418 27.6478 675.922 27.1455 677.423 27.1455C678.624 27.1455 669.251 27.8152 664.415 28.15H679.925C681.926 28.15 681.425 28.6523 675.922 28.6523C670.419 28.6523 645.403 30.6613 638.399 32.1681C631.394 33.6749 598.374 33.1726 582.864 33.1726C567.354 33.1726 491.766 33.6682 488.805 33.1726C485.803 32.6701 477.798 32.1681 484.803 32.1681C485.922 32.1681 430.769 31.1636 412.758 30.6613C394.747 30.159 300.688 31.1636 262.164 30.6613C223.64 30.159 171.107 31.1636 168.105 31.1636C165.103 31.1636 150.594 31.6656 158.099 30.6613C158.8 30.5675 124.078 31.6658 88.055 31.1636Z" fill="currentColor"/>
<path d="M109.068 186.361C73.1263 188.833 -8.6395e-05 194.565 0 193.895C8.63952e-05 193.226 8.005 192.389 8.50531 191.886C9.00562 191.384 0.440134 192.279 0.500291 191.886C0.554278 191.534 8.40404 190.873 8.50531 190.38C8.60658 189.886 1.50096 190.791 1.50096 190.547C1.50096 189.877 8.82169 189.56 9.00554 189.375C9.50585 188.873 2.50146 189.877 1.50087 189.208C0.500289 188.538 10.5065 188.002 10.5065 187.868C10.5064 187.454 1.76417 188.186 2.00125 187.868C2.23833 187.551 16.5102 185.859 4.50273 186.361C-7.50477 186.864 20.5127 184.352 27.5171 183.85C34.5215 183.348 82.0512 178.829 104.565 176.819C127.079 174.809 184.615 170.792 182.614 171.796C181.001 172.606 189.118 172.299 193.121 172.801C197.123 173.303 310.304 175.978 359.725 179.33C412.758 182.926 493.808 183.85 497.31 183.85C500.813 183.85 509.818 184.352 502.814 184.854C499.181 185.115 561.35 185.859 572.357 186.361C583.364 186.863 619.887 188.37 624.39 188.37C628.893 188.37 649.906 189.877 652.407 189.877C654.909 189.877 660.913 191.384 662.914 191.886C664.515 192.288 657.077 191.718 654.409 191.886C656.041 192.022 660.937 192.939 663.554 193.272C664.839 193.331 665.618 193.393 664.915 193.393C664.62 193.393 664.145 193.347 663.554 193.272C661.182 193.164 657.086 193.067 657.41 193.393C657.911 193.895 669.918 193.393 669.918 193.895C669.918 194.397 654.909 193.895 654.909 194.397C654.909 194.9 671.919 194.397 671.919 194.9C671.919 195.402 660.412 194.397 661.913 194.9C663.104 195.298 669.02 195.697 672.162 195.844C673.519 195.876 674.268 195.904 673.921 195.904C673.611 195.904 672.98 195.883 672.162 195.844C668.834 195.766 661.847 195.666 658.411 195.904C662.914 195.904 674.821 196.909 676.422 196.909C678.424 196.909 677.923 197.411 672.42 197.411C666.916 197.411 649.906 197.913 641.4 197.913C634.237 197.913 632.895 198.415 623.389 198.415C607.879 198.415 491.307 195.904 487.304 195.904C484.261 195.904 476.297 194.9 483.302 194.9C484.42 194.9 411.257 191.384 393.245 190.881C375.234 190.379 332.207 187.868 290.681 186.361C252.179 184.964 202.126 181.841 199.124 181.841C196.122 181.841 181.613 182.343 189.118 181.339C189.819 181.245 145.591 183.85 109.068 186.361Z" fill="currentColor"/>
<path d="M41.0256 20.6162C41.4259 17.8036 41.8595 10.7385 42.0263 7.55752C42.5265 8.05989 42.5266 9.56645 42.5266 10.0687C42.5266 10.571 42.5266 2.53483 43.0269 3.03709C43.5272 3.53935 43.0269 8.56193 43.5272 9.06419C44.0275 9.56645 43.5272 1.53032 44.0275 1.02806C44.5279 0.525801 44.0275 5.54838 44.5279 5.54838C45.0282 5.54838 44.5279 0.526284 45.0282 0.0240258C45.5285 -0.478232 44.5279 7.05527 45.0282 7.55752C45.5285 8.05978 45.5285 1.53043 45.5285 3.53946C45.5285 5.54849 46.5291 11.5756 47.0294 14.0869C47.5297 16.5982 47.5297 27.1456 46.5291 41.2088C45.5285 55.272 42.0263 99.4708 41.0257 106C40.025 112.529 38.0238 146.683 38.0238 150.701C38.0238 154.719 33.521 168.28 32.02 178.325C30.5191 188.37 32.02 200.425 32.5204 202.936C33.0207 205.447 33.0207 202.434 33.0207 203.438C33.0207 204.443 35.0219 210.47 35.0219 210.972C35.0219 211.474 33.521 207.959 33.521 208.461C33.521 208.963 34.5216 210.972 34.0213 210.972C33.521 210.972 33.521 207.959 33.0207 208.461C32.5204 208.963 33.0207 210.47 33.0207 210.972C33.0207 211.474 32.02 206.954 32.02 207.456C32.02 207.959 32.5204 209.968 32.5204 210.47C32.5204 210.972 31.5197 206.954 31.5197 207.959C31.5197 208.963 32.02 208.963 32.02 209.968C32.02 210.972 31.0194 206.954 31.0194 207.959C31.0194 208.963 32.02 210.972 32.02 211.474C32.02 211.977 30.5191 207.456 30.5191 207.959C30.5191 208.36 30.8526 209.8 31.0194 210.47C30.5191 210.47 30.0187 206.452 27.0169 189.877C24.015 173.303 28.0175 153.715 29.0181 150.701C30.0187 147.688 29.0181 137.642 31.0194 107.005C33.0206 76.3669 34.0212 72.8511 35.5222 62.8059C37.0231 52.7608 36.5228 53.263 35.5222 57.7833C34.5216 62.3037 40.5253 24.132 41.0256 20.6162Z" fill="currentColor"/>
<path d="M656.91 191.423C657.31 194.236 657.744 201.301 657.911 204.482C658.411 203.979 658.411 202.473 658.411 201.971C658.411 201.468 658.911 208.037 658.911 209.002C659.412 200.927 659.912 203.438 660.412 202.936C660.913 202.434 660.412 210.47 660.913 210.972C661.413 211.474 660.913 206.452 661.413 206.452C661.913 206.452 661.413 211.474 661.913 211.976C662.413 212.478 661.413 204.945 661.913 204.442C662.413 203.94 663.01 210.509 663.01 208.5C663.01 206.491 662.51 195.48 663.01 191.423C663.511 187.366 662.607 183.348 662.51 169.285C662.413 155.186 658.104 116.123 658.508 106.039C658.911 95.9548 658.508 88.421 658.508 72.851C658.508 57.281 655.506 41.711 655.506 34.6794C655.506 27.6478 653.408 15.0913 652.908 10.571C652.407 6.05064 652.197 4.1472 652.504 1.0672C652.6 -0.902695 651.003 4.08075 651.003 3.57849C651.003 3.07623 652.003 1.0672 651.503 1.0672C651.003 1.0672 651.003 4.08075 650.503 3.57849C650.002 3.07623 650.503 1.56946 650.503 1.0672C650.503 0.564941 649.502 5.08527 649.502 4.58301C649.502 4.08075 650.002 2.07172 650.002 1.56946C650.002 1.0672 649.002 5.08527 649.002 4.08075C649.002 3.07623 649.502 3.07623 649.502 2.07172C649.502 1.0672 648.501 5.08527 648.501 4.08075C648.501 3.07623 649.502 1.0672 649.502 0.564941C649.502 0.219116 648.79 2.25439 648.347 3.39185C648.368 2.6904 648.395 2.17072 648.428 1.86958C648.455 1.75897 648.479 1.65755 648.501 1.56946C648.474 1.56946 648.45 1.67291 648.428 1.86958C648.253 2.59996 648.001 3.7318 648.001 4.08075C648.001 4.23718 648.147 3.90639 648.347 3.39185C648.13 10.6119 648.501 37.0896 648.501 42.7155C648.501 49.2448 649.002 53.7652 649.002 64.3126C649.002 74.86 648.001 85.4074 648.501 105.035C649.001 124.662 649.906 139.149 651.407 149.194C652.908 159.239 652.407 158.737 651.407 154.217C650.406 149.696 656.41 187.907 656.91 191.423Z" fill="currentColor"/>
</g>
</svg>
