<svg width="1785" height="212" viewBox="0 0 1785 212" fill="none" preserveAspectRatio="none" xmlns="http://www.w3.org/2000/svg">
<g class="bg">
<path d="M29.5 188L45 26L1748.5 30.5L1757.5 192L876.5 181.5L723.5 192H278L29.5 188Z" fill="white"/>
</g>
<g class="border">
<path d="M88.055 31.1636C52.0326 30.6613 18.0111 27.6473 18.0112 27.1453C18.0113 26.6432 25.0156 27.1453 25.5159 26.643C26.0162 26.1407 18.4514 25.9333 18.5115 25.6385C18.5655 25.3739 24.9143 25.6294 25.0156 25.1362C25.1169 24.643 19.5122 24.8173 19.5122 24.634C19.5122 24.1317 24.3315 24.8185 24.5153 24.634C25.0156 24.1317 20.5128 24.1317 19.5122 23.6294C18.5115 23.1272 24.0151 23.7637 24.0151 23.6294C24.015 23.2154 19.7755 22.8629 20.0126 22.6249C20.2497 22.3869 26.0163 23.1272 21.5135 22.1227C17.0107 21.1182 43.5415 21.066 44.5279 21.1182C54.0338 21.6204 81.0507 21.6204 89.0557 21.6204C97.0607 21.6204 339.495 19.6114 337.493 20.6159C335.88 21.4258 343.997 21.1182 348 21.6204C352.003 22.1227 804.935 20.6161 854.466 20.1138C903.997 19.6116 1098.5 21.6206 1102.01 21.6206C1105.51 21.6206 1114.51 22.1227 1107.51 22.6251C1103.88 22.8857 1667.6 26.6844 1678.61 27.1867C1689.61 27.6889 1717.13 26.6844 1721.63 26.6844C1726.14 26.6844 1749.15 26.1822 1751.65 26.1822C1754.15 26.1822 1760.16 27.1867 1762.16 27.6889C1763.76 28.0907 1758.82 28.526 1756.15 28.6934C1758.16 28.8609 1762.56 29.1957 1764.16 29.1957C1766.16 29.1957 1758.66 29.698 1759.16 30.2003C1759.66 30.7025 1769.16 29.1957 1769.16 29.698C1769.16 30.2003 1756.66 30.7026 1756.66 31.2048C1756.66 31.7071 1771.16 30.2003 1771.16 30.7026C1771.16 31.2048 1762.16 31.2048 1763.66 31.7071C1765.16 32.2093 1771.66 31.7071 1773.17 31.7071C1774.37 31.7071 1764.99 32.3767 1760.16 32.7116H1775.67C1777.67 32.7116 1777.17 33.2138 1771.66 33.2138C1766.16 33.2138 1741.15 35.2229 1734.14 36.7297C1727.14 38.2364 1694.12 37.7342 1678.61 37.7342C1663.1 37.7342 1095.96 33.6682 1093 33.1726C1090 32.6701 1081.99 32.1681 1089 32.1681C1090.12 32.1681 926.511 31.1636 908.5 30.6613C890.489 30.159 480.583 31.1636 442.059 30.6613C403.535 30.159 351.002 31.1636 348 31.1636C344.998 31.1636 330.489 31.6656 337.994 30.6613C338.695 30.5675 124.078 31.6658 88.055 31.1636Z" fill="black"/>
<path d="M232.503 197.558C196.561 200.029 -8.63951e-05 194.565 0 193.896C8.63951e-05 193.226 8.005 192.389 8.50531 191.887C9.00562 191.384 0.440134 192.28 0.500291 191.887C0.554278 191.534 8.40404 190.873 8.50531 190.38C8.60658 189.887 1.50096 190.792 1.50096 190.547C1.50096 189.878 8.82169 189.56 9.00554 189.375C9.50585 188.873 2.50146 189.878 1.50087 189.208C0.500289 188.538 10.5065 188.003 10.5065 187.869C10.5064 187.455 1.76417 188.186 2.00125 187.869C2.23833 187.551 16.5102 185.86 4.50273 186.362C-7.50477 186.864 20.5127 184.353 27.5171 183.85C34.5215 183.348 205.486 190.025 228 188.015C250.514 186.006 713.949 184.065 711.948 185.07C710.335 185.88 718.452 185.572 722.455 186.074C726.457 186.577 879.058 175.978 928.479 179.33C981.512 182.927 1344.01 183.85 1347.51 183.85C1351.01 183.85 1360.02 184.352 1353.01 184.855C1349.38 185.115 1411.55 185.859 1422.56 186.361C1433.56 186.864 1737.6 185.586 1742.1 185.586C1746.6 185.586 1756.51 187.092 1759.01 187.092C1761.51 187.092 1767.51 188.599 1769.51 189.101C1771.11 189.503 1763.68 188.934 1761.01 189.101C1762.64 189.238 1767.54 190.155 1770.15 190.488C1771.44 190.546 1772.22 190.608 1771.51 190.608C1771.22 190.608 1770.74 190.563 1770.15 190.488C1767.78 190.379 1763.69 190.282 1764.01 190.608C1764.51 191.111 1776.52 190.608 1776.52 191.111C1776.52 191.613 1761.51 191.111 1761.51 191.613C1761.51 192.115 1778.52 191.613 1778.52 192.115C1778.52 192.617 1767.01 191.613 1768.51 192.115C1769.7 192.514 1775.62 192.912 1778.76 193.06C1780.12 193.092 1780.87 193.12 1780.52 193.12C1780.21 193.12 1779.58 193.098 1778.76 193.06C1775.43 192.982 1768.45 192.882 1765.01 193.12C1769.51 193.12 1781.42 194.124 1783.02 194.124C1785.02 194.124 1784.52 194.626 1779.02 194.626C1773.52 194.626 1756.51 195.129 1748 195.129C1740.84 195.129 1750.6 195.631 1741.1 195.631C1725.59 195.631 1341.5 195.904 1337.5 195.904C1334.46 195.904 1326.5 194.9 1333.5 194.9C1334.62 194.9 980.011 191.384 962 190.882C943.989 190.38 900.962 187.869 859.436 186.362C820.934 184.965 731.46 195.114 728.458 195.114C725.457 195.114 710.947 195.616 718.452 194.612C719.154 194.518 269.026 195.047 232.503 197.558Z" fill="black"/>
<path d="M41.0256 20.6162C41.4259 17.8036 41.8595 10.7385 42.0263 7.55752C42.5265 8.05989 42.5266 9.56645 42.5266 10.0687C42.5266 10.571 42.5266 2.53483 43.0269 3.03709C43.5272 3.53935 43.0269 8.56193 43.5272 9.06419C44.0275 9.56645 43.5272 1.53032 44.0275 1.02806C44.5279 0.525801 44.0275 5.54838 44.5279 5.54838C45.0282 5.54838 44.5279 0.526284 45.0282 0.0240258C45.5285 -0.478232 44.5279 7.05527 45.0282 7.55752C45.5285 8.05978 45.5285 1.53043 45.5285 3.53946C45.5285 5.54849 46.5291 11.5756 47.0294 14.0869C47.5297 16.5982 47.5297 27.1456 46.5291 41.2088C45.5285 55.272 42.0263 99.4708 41.0257 106C40.025 112.529 38.0238 146.683 38.0238 150.701C38.0238 154.719 33.521 168.28 32.02 178.325C30.5191 188.37 32.02 200.425 32.5204 202.936C33.0207 205.447 33.0207 202.434 33.0207 203.438C33.0207 204.443 35.0219 210.47 35.0219 210.972C35.0219 211.474 33.521 207.959 33.521 208.461C33.521 208.963 34.5216 210.972 34.0213 210.972C33.521 210.972 33.521 207.959 33.0207 208.461C32.5204 208.963 33.0207 210.47 33.0207 210.972C33.0207 211.474 32.02 206.954 32.02 207.456C32.02 207.959 32.5204 209.968 32.5204 210.47C32.5204 210.972 31.5197 206.954 31.5197 207.959C31.5197 208.963 32.02 208.963 32.02 209.968C32.02 210.972 31.0194 206.954 31.0194 207.959C31.0194 208.963 32.02 210.972 32.02 211.474C32.02 211.977 30.5191 207.456 30.5191 207.959C30.5191 208.36 30.8526 209.8 31.0194 210.47C30.5191 210.47 30.0187 206.452 27.0169 189.877C24.015 173.303 28.0175 153.715 29.0181 150.701C30.0187 147.688 29.0181 137.642 31.0194 107.005C33.0206 76.3669 34.0212 72.8511 35.5222 62.8059C37.0231 52.7608 36.5228 53.263 35.5222 57.7833C34.5216 62.3037 40.5253 24.132 41.0256 20.6162Z" fill="black"/>
<path d="M1753.91 191.423C1754.31 194.236 1754.74 201.301 1754.91 204.482C1755.41 203.979 1755.41 202.473 1755.41 201.971C1755.41 201.468 1755.91 208.037 1755.91 209.002C1756.41 200.927 1756.91 203.438 1757.41 202.936C1757.91 202.434 1757.41 210.47 1757.91 210.972C1758.41 211.474 1757.91 206.452 1758.41 206.452C1758.91 206.452 1758.41 211.474 1758.91 211.976C1759.41 212.478 1758.41 204.945 1758.91 204.442C1759.41 203.94 1760.01 210.509 1760.01 208.5C1760.01 206.491 1759.51 195.48 1760.01 191.423C1760.51 187.366 1759.61 183.348 1759.51 169.285C1759.41 155.186 1755.1 116.123 1755.51 106.039C1755.91 95.9548 1755.51 88.421 1755.51 72.851C1755.51 57.281 1752.5 41.711 1752.5 34.6794C1752.5 27.6478 1750.41 15.0913 1749.91 10.571C1749.41 6.05064 1749.2 4.1472 1749.5 1.0672C1749.6 -0.902695 1748 4.08075 1748 3.57849C1748 3.07623 1749 1.0672 1748.5 1.0672C1748 1.0672 1748 4.08075 1747.5 3.57849C1747 3.07623 1747.5 1.56946 1747.5 1.0672C1747.5 0.564941 1746.5 5.08527 1746.5 4.58301C1746.5 4.08075 1747 2.07172 1747 1.56946C1747 1.0672 1746 5.08527 1746 4.08075C1746 3.07623 1746.5 3.07623 1746.5 2.07172C1746.5 1.0672 1745.5 5.08527 1745.5 4.08075C1745.5 3.07623 1746.5 1.0672 1746.5 0.564941C1746.5 0.219116 1745.79 2.25439 1745.35 3.39185C1745.37 2.6904 1745.39 2.17072 1745.43 1.86958C1745.45 1.75897 1745.48 1.65755 1745.5 1.56946C1745.47 1.56946 1745.45 1.67291 1745.43 1.86958C1745.25 2.59996 1745 3.7318 1745 4.08075C1745 4.23718 1745.15 3.90639 1745.35 3.39185C1745.13 10.6119 1745.5 37.0896 1745.5 42.7155C1745.5 49.2448 1746 53.7652 1746 64.3126C1746 74.86 1745 85.4074 1745.5 105.035C1746 124.662 1746.9 139.149 1748.41 149.194C1749.91 159.239 1749.41 158.737 1748.41 154.217C1747.41 149.696 1753.41 187.907 1753.91 191.423Z" fill="black"/>
</g>
</svg>
