<svg width="32" height="32" viewBox="0 0 32 32" fill="currentColor" xmlns="http://www.w3.org/2000/svg"><g clip-path="url(#clip0_228_2)"><path d="M3.12041 0.0427246C1.34761 0.0427246 -0.0795898 1.46993 -0.0795898 3.24272V28.8427C-0.0795898 30.6155 1.34761 32.0427 3.12041 32.0427H28.7204C30.4932 32.0427 31.9204 30.6155 31.9204 28.8427V3.24272C31.9204 1.46993 30.4932 0.0427246 28.7204 0.0427246H3.12041ZM16.0001 8.44995C23.9516 8.44995 30.4001 11.8385 30.4001 16.0235C30.4001 20.2085 23.9516 23.5969 16.0001 23.5969C8.04861 23.5969 1.6001 20.2085 1.6001 16.0235C1.6001 11.8385 8.04861 8.44995 16.0001 8.44995ZM16.0001 9.20591C8.29161 9.20591 2.35605 12.455 2.35605 16.0235C2.35605 19.592 8.2871 22.841 16.0001 22.841C23.7086 22.841 29.6441 19.592 29.6441 16.0235C29.6441 12.455 23.7131 9.20591 16.0001 9.20591ZM14.3396 10.6549H15.9821L15.5906 12.6709C17.0081 12.6709 18.3221 12.5675 18.9566 13.1525C19.6226 13.7645 19.3031 14.5474 18.5831 18.2419H16.9181C17.6111 14.6689 17.7416 14.3719 17.4896 14.1019C17.2466 13.8409 16.6931 13.895 15.3566 13.895L14.5106 18.2419H12.8681L14.3396 10.6549ZM7.45459 12.6754H10.6361C11.5901 12.6754 12.2921 12.9229 12.7286 13.4269C13.5656 14.3899 13.2596 16.3115 12.0851 17.3915C11.0231 18.386 9.87557 18.2509 8.02607 18.2509L7.63457 20.2669H5.98311L7.45459 12.6754ZM20.3651 12.6754H23.5466C24.5006 12.6754 25.2026 12.9229 25.6391 13.4269C26.4761 14.3899 26.1701 16.3115 24.9956 17.3915C23.9561 18.3635 22.8806 18.2509 20.9366 18.2509L20.5451 20.2669H18.8891L20.3651 12.6754ZM10.0459 13.8707C9.70179 13.861 9.30855 13.8724 8.88105 13.8724L8.26455 17.0495C9.80805 17.0495 11.0636 17.2385 11.4191 15.416C11.6689 14.12 11.0782 13.8998 10.0459 13.8707ZM22.9557 13.8707C22.6111 13.861 22.2169 13.8724 21.7871 13.8724L21.1706 17.0495C22.6736 17.0495 23.9651 17.2655 24.3251 15.416C24.5748 14.12 23.9893 13.8998 22.9557 13.8707Z"/></g><defs><clipPath id="clip0_228_2"><rect width="32" height="32" /></clipPath></defs></svg>