<svg viewBox="0 0 32 32" fill="none" xmlns="http://www.w3.org/2000/svg">
  <path d="M2 21.9839C1.44772 21.9839 1 22.4316 1 22.9839C1 23.5362 1.44772 23.9839 2 23.9839V21.9839ZM14.895 22.9839V23.9839C15.1589 23.9839 15.4121 23.8796 15.5994 23.6936L14.895 22.9839ZM30 8.98762C30.0021 8.43534 29.556 7.98596 29.0037 7.98389L20.0038 7.95026C19.4515 7.9482 19.0021 8.39424 19.0001 8.94652C18.998 9.4988 19.444 9.94818 19.9963 9.95025L27.9963 9.98014L27.9664 17.9801C27.9643 18.5324 28.4104 18.9818 28.9626 18.9838C29.5149 18.9859 29.9643 18.5398 29.9664 17.9876L30 8.98762ZM2 23.9839H14.895V21.9839H2V23.9839ZM15.5994 23.6936L29.7045 9.69363L28.2955 8.27414L14.1905 22.2741L15.5994 23.6936Z" fill="currentColor"/>
</svg>
