<svg width="600" height="46" viewBox="0 0 600 46" fill="none" preserveAspectRatio="none" xmlns="http://www.w3.org/2000/svg">
<path d="M66.5415 22.0993C40.5253 22.2579 -8.6395e-05 30.4611 0 29.7918C8.63952e-05 29.1224 8.005 28.285 8.50531 27.7828C9.00562 27.2805 0.440134 28.1758 0.500291 27.7828C0.554278 27.43 8.40404 26.7692 8.50531 26.276C8.60658 25.7828 1.50096 26.6878 1.50096 26.4434C1.50096 25.7737 8.82169 25.456 9.00554 25.2715C9.50585 24.7692 2.50146 25.7737 1.50087 25.104C0.500289 24.4344 10.5065 23.8989 10.5065 23.7647C10.5064 23.3506 1.76417 24.082 2.00125 23.7647C2.23833 23.4473 16.5102 21.7557 4.50273 22.2579C-7.50477 22.7602 20.0126 18.9272 28.0175 17.579C36.0224 16.2308 44.5278 15.0684 67.0419 13.0587C89.5559 11.0489 178.611 16.7336 176.61 17.7381C174.997 18.548 183.114 18.2404 187.117 18.7427C191.119 19.2449 334.234 26.1257 383.74 27.7823C413.758 28.7868 463.79 27.7823 467.292 27.7823C470.794 27.7823 479.799 28.2844 472.795 28.7868C469.162 29.0474 523.827 26.2756 534.834 26.7779C545.841 27.2801 558.849 25.7733 563.352 25.7733H573.858C576.36 25.7733 582.362 27.2798 584.364 27.7822L584.365 27.7824C585.966 28.1842 578.528 27.6149 575.859 27.7823C577.492 27.9189 582.388 28.8355 585.005 29.1685C586.29 29.2271 587.069 29.2891 586.366 29.2891C586.071 29.2891 585.596 29.2437 585.005 29.1685C582.633 29.0602 578.537 28.9633 578.861 29.2891C579.362 29.7914 591.369 29.2892 591.369 29.7914C591.369 30.2937 576.36 29.7914 576.36 30.2937C576.36 30.7959 593.37 30.2937 593.37 30.796C593.37 31.2982 581.863 30.2937 583.364 30.7959C584.555 31.1945 590.47 31.593 593.613 31.7406C594.97 31.7724 595.719 31.8005 595.372 31.8005C595.062 31.8005 594.431 31.7791 593.613 31.7406C590.284 31.6627 583.298 31.5626 579.862 31.8005C584.365 31.8005 596.272 32.805 597.873 32.805C599.875 32.805 599.875 33.3073 593.871 33.3073C587.867 33.3073 570.856 36.0603 553.846 37.1669C536.835 38.2736 461.288 39.8365 457.285 39.8365C454.242 39.8365 446.278 38.832 453.283 38.832C454.402 38.832 380.237 37.6692 362.226 37.1669C344.215 36.6647 321.201 34.814 279.675 33.3073C241.172 31.9102 196.122 27.7827 193.121 27.7827C190.119 27.7827 175.61 28.2847 183.114 27.2804C183.816 27.1865 92.5578 21.9407 66.5415 22.0993Z" fill="currentColor"/>
<path d="M22.5141 1.00452L16.5103 0C14.5091 11.0497 11.0069 23.1039 10.0063 27.6242C9.00565 32.1445 8.50534 31.14 8.00501 31.14C7.50468 31.14 5.00314 41.6874 4.50282 42.1897C4.00251 42.6919 7.00438 45.7055 8.00501 45.7055C9.00563 45.7055 10.0063 44.1987 11.0069 43.6965C12.0075 43.1942 18.0113 22.6016 19.5122 17.579C21.0131 12.5565 22.0138 4.52032 21.5134 4.52032C21.1132 4.52032 22.0138 2.17645 22.5141 1.00452Z" fill="currentColor"/>
<path d="M587.867 13.5607L583.364 10.0449C579.362 15.0675 575.359 21.0946 573.858 23.1036C572.357 25.1127 563.352 40.6827 562.851 41.1849C562.351 41.6872 563.852 44.1985 563.852 44.7007C563.852 45.203 568.355 45.7052 568.855 45.7052C569.355 45.7052 573.858 36.1623 574.859 34.1533C575.859 32.1443 583.864 20.0901 584.365 19.5878C584.765 19.186 584.865 18.4159 584.865 18.0811L587.867 13.5607Z" fill="currentColor"/>
</svg>
